<?xml version="1.0" standalone="no"?>
<!DOCTYPE svg PUBLIC "-//W3C//DTD SVG 20010904//EN"
 "http://www.w3.org/TR/2001/REC-SVG-20010904/DTD/svg10.dtd">
<svg version="1.0" xmlns="http://www.w3.org/2000/svg"
 width="512.000000pt" height="512.000000pt" viewBox="0 0 512.000000 512.000000"
 preserveAspectRatio="xMidYMid meet">
<metadata>
Created by potrace 1.14, written by Peter Selinger 2001-2017
</metadata>
<g transform="translate(0.000000,512.000000) scale(0.100000,-0.100000)"
fill="#000000" stroke="none">
<path d="M1690 3924 c-201 -42 -372 -134 -524 -281 -154 -150 -254 -337 -290
-544 -34 -198 14 -513 70 -457 11 11 11 22 -1 68 -92 357 34 724 332 961 165
131 348 203 541 213 228 11 475 -103 674 -312 l68 -70 72 75 c294 303 654 385
996 227 250 -115 450 -332 531 -577 51 -152 59 -347 22 -494 -17 -67 -18 -80
-6 -92 23 -23 40 1 61 86 28 116 26 327 -4 448 -93 369 -421 677 -798 749
-282 53 -549 -35 -797 -265 l-78 -72 -47 45 c-87 84 -107 101 -182 150 -102
67 -221 120 -326 144 -57 13 -249 12 -314 -2z"/>
<path d="M2028 3049 c-19 -30 -90 -144 -158 -254 -67 -110 -126 -204 -130
-209 -5 -4 -280 -8 -612 -8 -331 1 -611 -2 -620 -4 -10 -3 -18 -14 -18 -24 0
-9 8 -20 18 -22 9 -3 296 -5 637 -5 l620 0 149 240 148 239 42 -78 c23 -44 65
-122 93 -174 111 -208 140 -262 233 -435 53 -99 102 -190 109 -203 11 -22 21
-9 150 195 76 120 179 282 229 361 l90 143 49 -103 c26 -57 57 -121 68 -143
l20 -40 729 0 c517 0 733 3 744 11 8 6 13 18 9 26 -5 14 -85 16 -704 16 -384
0 -710 1 -724 1 -22 1 -30 10 -47 49 -11 26 -47 102 -79 169 l-58 123 -229
-361 c-126 -198 -232 -356 -236 -352 -4 4 -112 204 -239 443 -128 239 -236
439 -241 444 -4 4 -23 -16 -42 -45z"/>
<path d="M1030 2425 c-10 -13 -6 -25 25 -73 58 -87 442 -466 774 -762 46 -41
89 -80 95 -85 20 -19 447 -384 511 -437 91 -75 121 -98 127 -98 4 0 18 9 30
19 13 11 88 74 168 142 268 226 266 224 349 297 36 31 85 75 110 97 456 401
881 829 881 887 0 13 -19 28 -35 28 -1 0 -27 -33 -57 -72 -107 -141 -529 -547
-934 -898 -62 -53 -312 -267 -363 -310 -30 -25 -74 -62 -98 -83 -49 -41 -55
-43 -75 -24 -7 6 -40 34 -73 62 -61 50 -381 321 -401 340 -6 5 -37 33 -69 60
-32 28 -66 57 -76 65 -19 17 -147 133 -238 215 -206 188 -504 488 -567 571
-50 68 -67 79 -84 59z"/>
</g>
</svg>
